<mxfile host="www.draw.io" modified="2024-03-29T03:20:21.485Z" agent="Mozilla/5.0 (Windows NT 10.0; Win64; x64) AppleWebKit/537.36 (KHTML, like Gecko) Chrome/123.0.0.0 Safari/537.36" etag="mjYazvKXajRplOV9vp3b" version="24.2.0" type="device">
  <diagram name="Page-1" id="FfbyazMvFIRgCJXMeCMY">
    <mxGraphModel dx="1513" dy="753" grid="1" gridSize="10" guides="1" tooltips="1" connect="1" arrows="1" fold="1" page="1" pageScale="1" pageWidth="827" pageHeight="1169" math="0" shadow="0">
      <root>
        <mxCell id="0" />
        <mxCell id="1" parent="0" />
        <mxCell id="r546tbAjvyNkP765XXlG-8" value="" style="edgeStyle=orthogonalEdgeStyle;rounded=0;orthogonalLoop=1;jettySize=auto;html=1;" edge="1" parent="1" source="r546tbAjvyNkP765XXlG-1" target="r546tbAjvyNkP765XXlG-7">
          <mxGeometry relative="1" as="geometry" />
        </mxCell>
        <mxCell id="r546tbAjvyNkP765XXlG-1" value="&lt;font style=&quot;font-size: 16px;&quot;&gt;&lt;b&gt;Input&lt;/b&gt;&lt;/font&gt;" style="rounded=0;whiteSpace=wrap;html=1;fillColor=#f5f5f5;fontColor=#333333;strokeColor=#666666;" vertex="1" parent="1">
          <mxGeometry x="-140" y="100" width="70" height="30" as="geometry" />
        </mxCell>
        <mxCell id="r546tbAjvyNkP765XXlG-15" style="edgeStyle=orthogonalEdgeStyle;rounded=0;orthogonalLoop=1;jettySize=auto;html=1;exitX=0.5;exitY=1;exitDx=0;exitDy=0;entryX=0.5;entryY=0;entryDx=0;entryDy=0;" edge="1" parent="1" source="r546tbAjvyNkP765XXlG-2" target="r546tbAjvyNkP765XXlG-4">
          <mxGeometry relative="1" as="geometry" />
        </mxCell>
        <mxCell id="r546tbAjvyNkP765XXlG-2" value="&lt;font style=&quot;font-size: 16px;&quot;&gt;&lt;b&gt;3 * 3 Conv, 96,&lt;/b&gt;&lt;/font&gt;&lt;div&gt;&lt;font style=&quot;font-size: 16px;&quot;&gt;&lt;b&gt;Stride 2&lt;/b&gt;&lt;/font&gt;&lt;/div&gt;" style="rounded=0;whiteSpace=wrap;html=1;fillColor=#f8cecc;strokeColor=#b85450;" vertex="1" parent="1">
          <mxGeometry x="-280" y="450" width="110" height="60" as="geometry" />
        </mxCell>
        <mxCell id="r546tbAjvyNkP765XXlG-16" style="edgeStyle=orthogonalEdgeStyle;rounded=0;orthogonalLoop=1;jettySize=auto;html=1;exitX=0.5;exitY=1;exitDx=0;exitDy=0;entryX=0.5;entryY=0;entryDx=0;entryDy=0;" edge="1" parent="1" source="r546tbAjvyNkP765XXlG-3" target="r546tbAjvyNkP765XXlG-4">
          <mxGeometry relative="1" as="geometry" />
        </mxCell>
        <mxCell id="r546tbAjvyNkP765XXlG-3" value="&lt;font style=&quot;font-size: 16px;&quot;&gt;&lt;b&gt;3 * 3 MaxPooling,&lt;/b&gt;&lt;/font&gt;&lt;div&gt;&lt;font style=&quot;font-size: 16px;&quot;&gt;&lt;b&gt;Stride 2&lt;/b&gt;&lt;/font&gt;&lt;/div&gt;" style="rounded=0;whiteSpace=wrap;html=1;fillColor=#d5e8d4;strokeColor=#82b366;" vertex="1" parent="1">
          <mxGeometry x="-40" y="450" width="110" height="60" as="geometry" />
        </mxCell>
        <mxCell id="r546tbAjvyNkP765XXlG-18" style="edgeStyle=orthogonalEdgeStyle;rounded=0;orthogonalLoop=1;jettySize=auto;html=1;exitX=0.5;exitY=1;exitDx=0;exitDy=0;entryX=0.5;entryY=0;entryDx=0;entryDy=0;" edge="1" parent="1" source="r546tbAjvyNkP765XXlG-4" target="r546tbAjvyNkP765XXlG-17">
          <mxGeometry relative="1" as="geometry" />
        </mxCell>
        <mxCell id="r546tbAjvyNkP765XXlG-26" style="edgeStyle=orthogonalEdgeStyle;rounded=0;orthogonalLoop=1;jettySize=auto;html=1;exitX=0.5;exitY=1;exitDx=0;exitDy=0;entryX=0.5;entryY=0;entryDx=0;entryDy=0;" edge="1" parent="1" source="r546tbAjvyNkP765XXlG-4" target="r546tbAjvyNkP765XXlG-25">
          <mxGeometry relative="1" as="geometry" />
        </mxCell>
        <mxCell id="r546tbAjvyNkP765XXlG-4" value="&lt;span style=&quot;font-size: 16px;&quot;&gt;&lt;b&gt;Concatenate&lt;/b&gt;&lt;/span&gt;" style="rounded=0;whiteSpace=wrap;html=1;fillColor=#f5f5f5;fontColor=#333333;strokeColor=#666666;" vertex="1" parent="1">
          <mxGeometry x="-160" y="570" width="110" height="40" as="geometry" />
        </mxCell>
        <mxCell id="r546tbAjvyNkP765XXlG-10" value="" style="edgeStyle=orthogonalEdgeStyle;rounded=0;orthogonalLoop=1;jettySize=auto;html=1;" edge="1" parent="1" source="r546tbAjvyNkP765XXlG-7" target="r546tbAjvyNkP765XXlG-9">
          <mxGeometry relative="1" as="geometry" />
        </mxCell>
        <mxCell id="r546tbAjvyNkP765XXlG-7" value="&lt;font style=&quot;font-size: 16px;&quot;&gt;&lt;b&gt;3 * 3 Conv, 32,&lt;/b&gt;&lt;/font&gt;&lt;div&gt;&lt;font style=&quot;font-size: 16px;&quot;&gt;&lt;b&gt;Stride 2&lt;/b&gt;&lt;/font&gt;&lt;/div&gt;" style="rounded=0;whiteSpace=wrap;html=1;fillColor=#f8cecc;strokeColor=#b85450;" vertex="1" parent="1">
          <mxGeometry x="-160" y="170" width="110" height="60" as="geometry" />
        </mxCell>
        <mxCell id="r546tbAjvyNkP765XXlG-12" value="" style="edgeStyle=orthogonalEdgeStyle;rounded=0;orthogonalLoop=1;jettySize=auto;html=1;" edge="1" parent="1" source="r546tbAjvyNkP765XXlG-9" target="r546tbAjvyNkP765XXlG-11">
          <mxGeometry relative="1" as="geometry" />
        </mxCell>
        <mxCell id="r546tbAjvyNkP765XXlG-9" value="&lt;font style=&quot;font-size: 16px;&quot;&gt;&lt;b&gt;3 * 3 Conv, 32&lt;/b&gt;&lt;/font&gt;" style="rounded=0;whiteSpace=wrap;html=1;fillColor=#f8cecc;strokeColor=#b85450;" vertex="1" parent="1">
          <mxGeometry x="-150" y="260" width="90" height="50" as="geometry" />
        </mxCell>
        <mxCell id="r546tbAjvyNkP765XXlG-13" style="edgeStyle=orthogonalEdgeStyle;rounded=0;orthogonalLoop=1;jettySize=auto;html=1;exitX=0.5;exitY=1;exitDx=0;exitDy=0;entryX=0.5;entryY=0;entryDx=0;entryDy=0;" edge="1" parent="1" source="r546tbAjvyNkP765XXlG-11" target="r546tbAjvyNkP765XXlG-2">
          <mxGeometry relative="1" as="geometry" />
        </mxCell>
        <mxCell id="r546tbAjvyNkP765XXlG-14" style="edgeStyle=orthogonalEdgeStyle;rounded=0;orthogonalLoop=1;jettySize=auto;html=1;exitX=0.5;exitY=1;exitDx=0;exitDy=0;entryX=0.5;entryY=0;entryDx=0;entryDy=0;" edge="1" parent="1" source="r546tbAjvyNkP765XXlG-11" target="r546tbAjvyNkP765XXlG-3">
          <mxGeometry relative="1" as="geometry" />
        </mxCell>
        <mxCell id="r546tbAjvyNkP765XXlG-11" value="&lt;font style=&quot;font-size: 16px;&quot;&gt;&lt;b&gt;3 * 3 Conv, 64&lt;/b&gt;&lt;/font&gt;" style="rounded=0;whiteSpace=wrap;html=1;fillColor=#f8cecc;strokeColor=#b85450;" vertex="1" parent="1">
          <mxGeometry x="-150" y="340" width="90" height="50" as="geometry" />
        </mxCell>
        <mxCell id="r546tbAjvyNkP765XXlG-20" style="edgeStyle=orthogonalEdgeStyle;rounded=0;orthogonalLoop=1;jettySize=auto;html=1;exitX=0.5;exitY=1;exitDx=0;exitDy=0;entryX=0.5;entryY=0;entryDx=0;entryDy=0;" edge="1" parent="1" source="r546tbAjvyNkP765XXlG-17" target="r546tbAjvyNkP765XXlG-19">
          <mxGeometry relative="1" as="geometry" />
        </mxCell>
        <mxCell id="r546tbAjvyNkP765XXlG-17" value="&lt;span style=&quot;font-size: 16px;&quot;&gt;&lt;b&gt;1 * 1 Conv, 64&lt;/b&gt;&lt;/span&gt;" style="rounded=0;whiteSpace=wrap;html=1;fillColor=#f8cecc;strokeColor=#b85450;" vertex="1" parent="1">
          <mxGeometry x="-260" y="660" width="110" height="40" as="geometry" />
        </mxCell>
        <mxCell id="r546tbAjvyNkP765XXlG-22" value="" style="edgeStyle=orthogonalEdgeStyle;rounded=0;orthogonalLoop=1;jettySize=auto;html=1;" edge="1" parent="1" source="r546tbAjvyNkP765XXlG-19" target="r546tbAjvyNkP765XXlG-21">
          <mxGeometry relative="1" as="geometry" />
        </mxCell>
        <mxCell id="r546tbAjvyNkP765XXlG-19" value="&lt;span style=&quot;font-size: 16px;&quot;&gt;&lt;b&gt;1 * 7 Conv, 64&lt;/b&gt;&lt;/span&gt;" style="rounded=0;whiteSpace=wrap;html=1;fillColor=#f8cecc;strokeColor=#b85450;" vertex="1" parent="1">
          <mxGeometry x="-260" y="730" width="110" height="40" as="geometry" />
        </mxCell>
        <mxCell id="r546tbAjvyNkP765XXlG-24" value="" style="edgeStyle=orthogonalEdgeStyle;rounded=0;orthogonalLoop=1;jettySize=auto;html=1;" edge="1" parent="1" source="r546tbAjvyNkP765XXlG-21" target="r546tbAjvyNkP765XXlG-23">
          <mxGeometry relative="1" as="geometry" />
        </mxCell>
        <mxCell id="r546tbAjvyNkP765XXlG-21" value="&lt;span style=&quot;font-size: 16px;&quot;&gt;&lt;b&gt;7 * 1 Conv, 64&lt;/b&gt;&lt;/span&gt;" style="rounded=0;whiteSpace=wrap;html=1;fillColor=#f8cecc;strokeColor=#b85450;" vertex="1" parent="1">
          <mxGeometry x="-260" y="810" width="110" height="40" as="geometry" />
        </mxCell>
        <mxCell id="r546tbAjvyNkP765XXlG-31" style="edgeStyle=orthogonalEdgeStyle;rounded=0;orthogonalLoop=1;jettySize=auto;html=1;exitX=1;exitY=0.5;exitDx=0;exitDy=0;entryX=0;entryY=0.5;entryDx=0;entryDy=0;" edge="1" parent="1" source="r546tbAjvyNkP765XXlG-23" target="r546tbAjvyNkP765XXlG-29">
          <mxGeometry relative="1" as="geometry" />
        </mxCell>
        <mxCell id="r546tbAjvyNkP765XXlG-23" value="&lt;span style=&quot;font-size: 16px;&quot;&gt;&lt;b&gt;3 * 3 Conv, 64&lt;/b&gt;&lt;/span&gt;" style="rounded=0;whiteSpace=wrap;html=1;fillColor=#f8cecc;strokeColor=#b85450;" vertex="1" parent="1">
          <mxGeometry x="-260" y="880" width="110" height="40" as="geometry" />
        </mxCell>
        <mxCell id="r546tbAjvyNkP765XXlG-28" value="" style="edgeStyle=orthogonalEdgeStyle;rounded=0;orthogonalLoop=1;jettySize=auto;html=1;" edge="1" parent="1" source="r546tbAjvyNkP765XXlG-25" target="r546tbAjvyNkP765XXlG-27">
          <mxGeometry relative="1" as="geometry" />
        </mxCell>
        <mxCell id="r546tbAjvyNkP765XXlG-25" value="&lt;span style=&quot;font-size: 16px;&quot;&gt;&lt;b&gt;1 * 1 Conv, 64&lt;/b&gt;&lt;/span&gt;" style="rounded=0;whiteSpace=wrap;html=1;fillColor=#f8cecc;strokeColor=#b85450;" vertex="1" parent="1">
          <mxGeometry x="-60" y="660" width="110" height="40" as="geometry" />
        </mxCell>
        <mxCell id="r546tbAjvyNkP765XXlG-30" style="edgeStyle=orthogonalEdgeStyle;rounded=0;orthogonalLoop=1;jettySize=auto;html=1;exitX=0.5;exitY=1;exitDx=0;exitDy=0;entryX=0.5;entryY=0;entryDx=0;entryDy=0;" edge="1" parent="1" source="r546tbAjvyNkP765XXlG-27" target="r546tbAjvyNkP765XXlG-29">
          <mxGeometry relative="1" as="geometry" />
        </mxCell>
        <mxCell id="r546tbAjvyNkP765XXlG-27" value="&lt;span style=&quot;font-size: 16px;&quot;&gt;&lt;b&gt;3 * 3 Conv, 64&lt;/b&gt;&lt;/span&gt;" style="rounded=0;whiteSpace=wrap;html=1;fillColor=#f8cecc;strokeColor=#b85450;" vertex="1" parent="1">
          <mxGeometry x="-60" y="730" width="110" height="40" as="geometry" />
        </mxCell>
        <mxCell id="r546tbAjvyNkP765XXlG-35" style="edgeStyle=orthogonalEdgeStyle;rounded=0;orthogonalLoop=1;jettySize=auto;html=1;exitX=0.5;exitY=1;exitDx=0;exitDy=0;entryX=0.5;entryY=0;entryDx=0;entryDy=0;" edge="1" parent="1" source="r546tbAjvyNkP765XXlG-29" target="r546tbAjvyNkP765XXlG-34">
          <mxGeometry relative="1" as="geometry" />
        </mxCell>
        <mxCell id="r546tbAjvyNkP765XXlG-36" style="edgeStyle=orthogonalEdgeStyle;rounded=0;orthogonalLoop=1;jettySize=auto;html=1;exitX=0.5;exitY=1;exitDx=0;exitDy=0;entryX=0.5;entryY=0;entryDx=0;entryDy=0;" edge="1" parent="1" source="r546tbAjvyNkP765XXlG-29" target="r546tbAjvyNkP765XXlG-32">
          <mxGeometry relative="1" as="geometry" />
        </mxCell>
        <mxCell id="r546tbAjvyNkP765XXlG-29" value="&lt;span style=&quot;font-size: 16px;&quot;&gt;&lt;b&gt;Concatenate&lt;/b&gt;&lt;/span&gt;" style="rounded=0;whiteSpace=wrap;html=1;fillColor=#f5f5f5;fontColor=#333333;strokeColor=#666666;" vertex="1" parent="1">
          <mxGeometry x="-60" y="880" width="110" height="40" as="geometry" />
        </mxCell>
        <mxCell id="r546tbAjvyNkP765XXlG-38" style="edgeStyle=orthogonalEdgeStyle;rounded=0;orthogonalLoop=1;jettySize=auto;html=1;exitX=0.5;exitY=1;exitDx=0;exitDy=0;entryX=0.5;entryY=0;entryDx=0;entryDy=0;" edge="1" parent="1" source="r546tbAjvyNkP765XXlG-32" target="r546tbAjvyNkP765XXlG-37">
          <mxGeometry relative="1" as="geometry" />
        </mxCell>
        <mxCell id="r546tbAjvyNkP765XXlG-32" value="&lt;font style=&quot;font-size: 16px;&quot;&gt;&lt;b&gt;3 * 3 Conv, 96,&lt;/b&gt;&lt;/font&gt;&lt;div&gt;&lt;font style=&quot;font-size: 16px;&quot;&gt;&lt;b&gt;Stride 2&lt;/b&gt;&lt;/font&gt;&lt;/div&gt;" style="rounded=0;whiteSpace=wrap;html=1;fillColor=#f8cecc;strokeColor=#b85450;" vertex="1" parent="1">
          <mxGeometry x="-260" y="980" width="110" height="60" as="geometry" />
        </mxCell>
        <mxCell id="r546tbAjvyNkP765XXlG-39" style="edgeStyle=orthogonalEdgeStyle;rounded=0;orthogonalLoop=1;jettySize=auto;html=1;exitX=0.5;exitY=1;exitDx=0;exitDy=0;entryX=0.5;entryY=0;entryDx=0;entryDy=0;" edge="1" parent="1" source="r546tbAjvyNkP765XXlG-34" target="r546tbAjvyNkP765XXlG-37">
          <mxGeometry relative="1" as="geometry">
            <mxPoint x="-10" y="1080" as="targetPoint" />
          </mxGeometry>
        </mxCell>
        <mxCell id="r546tbAjvyNkP765XXlG-34" value="&lt;font style=&quot;font-size: 16px;&quot;&gt;&lt;b&gt;3 * 3 MaxPooling,&lt;/b&gt;&lt;/font&gt;&lt;div&gt;&lt;font style=&quot;font-size: 16px;&quot;&gt;&lt;b&gt;Stride 2&lt;/b&gt;&lt;/font&gt;&lt;/div&gt;" style="rounded=0;whiteSpace=wrap;html=1;fillColor=#d5e8d4;strokeColor=#82b366;" vertex="1" parent="1">
          <mxGeometry x="-40" y="980" width="110" height="60" as="geometry" />
        </mxCell>
        <mxCell id="r546tbAjvyNkP765XXlG-37" value="&lt;span style=&quot;font-size: 16px;&quot;&gt;&lt;b&gt;Concatenate&lt;/b&gt;&lt;/span&gt;" style="rounded=0;whiteSpace=wrap;html=1;fillColor=#f5f5f5;fontColor=#333333;strokeColor=#666666;" vertex="1" parent="1">
          <mxGeometry x="-160" y="1080" width="110" height="40" as="geometry" />
        </mxCell>
      </root>
    </mxGraphModel>
  </diagram>
</mxfile>
